<svg xmlns="http://www.w3.org/2000/svg" xmlns:xlink="http://www.w3.org/1999/xlink" width="163" height="40" viewBox="0 0 163 40">
    <defs>
        <path id="b" d="M0 0h1920v60H0z"/>
        <filter id="a" width="100.7%" height="123.3%" x="-.4%" y="-8.3%" filterUnits="objectBoundingBox">
            <feOffset dy="2" in="SourceAlpha" result="shadowOffsetOuter1"/>
            <feGaussianBlur in="shadowOffsetOuter1" result="shadowBlurOuter1" stdDeviation="2"/>
            <feColorMatrix in="shadowBlurOuter1" values="0 0 0 0 0 0 0 0 0 0 0 0 0 0 0 0 0 0 0.107563406 0"/>
        </filter>
    </defs>
    <g fill="none" fill-rule="evenodd">
        <g transform="translate(-15 -10)">
            <use fill="#000" filter="url(#a)" xlink:href="#b"/>
            <use fill="#FFF" xlink:href="#b"/>
        </g>
        <path fill="#A4C815" d="M0 0h72.67l4.614 20-4.614 20H0V20z"/>
        <path fill="#92B700" d="M77.284 20L72.67 40H0V20z"/>
        <path fill="#FFF" d="M26.633 22.022c0 7.998-3.725 11.997-11.176 11.997-7.229 0-10.843-3.906-10.843-11.719V6.923h6.015v15.452c0 4.308 1.684 6.463 5.05 6.463 3.305 0 4.958-2.08 4.958-6.24V6.923h5.996v15.099zm2.7 10.188v-5.943a11.44 11.44 0 0 0 7.348 2.712c.756 0 1.416-.068 1.98-.204.565-.137 1.036-.325 1.414-.567.378-.241.66-.526.846-.854a2.13 2.13 0 0 0 .28-1.068c0-.52-.15-.984-.447-1.393-.298-.409-.704-.786-1.218-1.133a12.735 12.735 0 0 0-1.833-1.003c-.706-.322-1.469-.65-2.287-.984-2.083-.867-3.637-1.925-4.66-3.176-1.023-1.25-1.534-2.76-1.534-4.531 0-1.387.279-2.579.837-3.576a7.102 7.102 0 0 1 2.278-2.46c.961-.644 2.074-1.118 3.34-1.421a17.18 17.18 0 0 1 4.017-.455c1.388 0 2.62.083 3.692.25 1.072.168 2.061.425 2.966.771v5.553a8.974 8.974 0 0 0-1.46-.817 11.58 11.58 0 0 0-1.627-.585 12.43 12.43 0 0 0-3.237-.455c-.682 0-1.302.065-1.86.195s-1.029.313-1.413.548a2.728 2.728 0 0 0-.893.845 2 2 0 0 0-.316 1.105c0 .446.118.845.353 1.198.236.353.57.687 1.005 1.003.434.316.96.625 1.58.928.62.304 1.321.616 2.102.938 1.067.446 2.025.92 2.874 1.421.85.502 1.578 1.068 2.186 1.7a6.619 6.619 0 0 1 1.395 2.163c.322.811.483 1.755.483 2.832 0 1.486-.282 2.734-.846 3.743a6.865 6.865 0 0 1-2.297 2.451c-.967.625-2.093 1.074-3.376 1.347a19.538 19.538 0 0 1-4.064.408 22.63 22.63 0 0 1-4.176-.371c-1.32-.248-2.464-.62-3.431-1.115zm36.609 1.325H49.985V6.923h15.344v4.88h-9.351v5.92h8.702v4.863h-8.702v6.087h9.964v4.862z"/>
        <path fill="#333" d="M163 32.814h-5.987V22.048h-10.976v10.766h-5.968V6.378h5.968v10.545h10.976V6.378H163v26.436zM98.348 11.226H90.79V32.81h-5.987V11.226h-7.52V6.378h21.064v4.848zm17.415 21.588H99.87V6.378h15.282v4.849h-9.313v5.88h8.666v4.83h-8.666v6.047h9.923v4.83zm21.61-1.234c-1.934.935-4.459 1.402-7.575 1.402-4.065 0-7.262-1.193-9.59-3.58-2.328-2.387-3.492-5.567-3.492-9.54 0-4.233 1.309-7.666 3.926-10.299 2.618-2.633 6.015-3.949 10.19-3.949 2.587 0 4.768.326 6.541.978v5.74c-1.773-1.059-3.794-1.588-6.06-1.588-2.488 0-4.496.782-6.024 2.344-1.527 1.563-2.29 3.679-2.29 6.349 0 2.559.72 4.598 2.161 6.117 1.441 1.52 3.381 2.28 5.82 2.28 2.328 0 4.46-.566 6.393-1.698v5.444z"/>
    </g>
</svg>
