<?xml version="1.0" encoding="UTF-8"?>
<svg width="10px" height="10px" viewBox="0 0 10 10" version="1.1" xmlns="http://www.w3.org/2000/svg" xmlns:xlink="http://www.w3.org/1999/xlink">
    <!-- Generator: Sketch 50.2 (55047) - http://www.bohemiancoding.com/sketch -->
    <title>Shape</title>
    <desc>Created with Sketch.</desc>
    <defs></defs>
    <g id="Page-1" stroke="none" stroke-width="1" fill="none" fill-rule="evenodd">
        <g id="UsetechPortal" transform="translate(-847.000000, -937.000000)" fill="#999999" fill-rule="nonzero">
            <g id="Group-11" transform="translate(540.000000, 560.000000)">
                <g id="Group-10">
                    <g id="Group-8" transform="translate(239.000000, 373.000000)">
                        <g id="Group-6" transform="translate(68.000000, 0.000000)">
                            <g id="comment-processing" transform="translate(0.000000, 4.000000)">
                                <path d="M3.49966578,10 C3.22355215,10 2.99971353,9.77617138 2.99971353,9.50004775 L2.99970853,8.00019098 L0.999904509,8.00019098 C0.447672247,8.00019098 0,7.55253373 0,7.00028647 L0.00469955119,0.99989951 C0.00469955119,0.447452268 0.44764725,0 0.999599538,0 L8.99884061,0 C9.5507879,0 9.99874512,0.447452268 9.99874512,0.99989951 L9.99874512,6.99933656 C9.99874512,7.55128385 9.5507879,7.99924107 8.99884061,7.99924107 L5.95143164,8.000041 L4.09855859,9.85291405 C4.00226778,9.94920485 3.8764698,9.99800019 3.75026185,9.99930007 L3.74964191,10 L3.49966578,10 Z M7.49928382,4.5005252 L7.49928382,3.50062569 L6.49937931,3.50062569 L6.49937931,4.5005252 L7.49928382,4.5005252 Z M5.4994748,4.5005252 L5.4994748,3.50062569 L4.49957029,3.50062569 L4.49957029,4.5005252 L5.4994748,4.5005252 Z M3.49966578,4.5005252 L3.49966578,3.50062569 L2.49976127,3.50062569 L2.49976127,4.5005252 L3.49966578,4.5005252 Z" id="Shape"></path>
                            </g>
                        </g>
                    </g>
                </g>
            </g>
        </g>
    </g>
</svg>