<?xml version="1.0" encoding="UTF-8"?>
<svg width="14px" height="10px" viewBox="0 0 14 10" version="1.1" xmlns="http://www.w3.org/2000/svg" xmlns:xlink="http://www.w3.org/1999/xlink">
    <!-- Generator: Sketch 50.2 (55047) - http://www.bohemiancoding.com/sketch -->
    <title>Shape</title>
    <desc>Created with Sketch.</desc>
    <defs></defs>
    <g id="Page-1" stroke="none" stroke-width="1" fill="none" fill-rule="evenodd">
        <g id="UsetechPortal" transform="translate(-779.000000, -937.000000)" fill="#999999" fill-rule="nonzero">
            <g id="Group-11" transform="translate(540.000000, 560.000000)">
                <g id="Group-10">
                    <g id="Group-8" transform="translate(239.000000, 373.000000)">
                        <g id="Group-5">
                            <g id="eye" transform="translate(0.000000, 4.000000)">
                                <path d="M6.99999682,2.86363767 C5.94554179,2.86363767 5.0909114,3.71825533 5.0909114,4.77271035 C5.0909114,5.82716538 5.94554179,6.68180213 6.99999682,6.68180213 C8.05445184,6.68180213 8.9090886,5.82716538 8.9090886,4.77271035 C8.9090886,3.71825533 8.05445184,2.86363767 6.99999682,2.86363767 Z M6.99999682,7.95452998 C5.24300238,7.95452998 3.81818355,6.52971115 3.81818355,4.77271035 C3.81818355,3.01573501 5.24300238,1.59090981 6.99999682,1.59090981 C8.75699762,1.59090981 10.1818164,3.01573501 10.1818164,4.77271035 C10.1818164,6.52971115 8.75699762,7.95452998 6.99999682,7.95452998 Z M6.99999682,0 C3.81691083,0 1.09963686,1.9797409 0,4.77271035 C1.09963686,7.56571162 3.81691083,9.54543979 6.99999682,9.54543979 C10.1837255,9.54543979 12.9003631,7.56571162 14,4.77271035 C12.9003631,1.9797409 10.1837255,0 6.99999682,0 Z" id="Shape"></path>
                            </g>
                        </g>
                    </g>
                </g>
            </g>
        </g>
    </g>
</svg>